<?xml version="1.0" encoding="iso-8859-1"?>
<!-- Generator: Adobe Illustrator 21.0.0, SVG Export Plug-In . SVG Version: 6.00 Build 0)  -->
<svg xmlns="http://www.w3.org/2000/svg" xmlns:xlink="http://www.w3.org/1999/xlink" version="1.1" id="Capa_1" x="0px" y="0px" viewBox="0 0 512.001 512.001" style="enable-background:new 0 0 512.001 512.001;" xml:space="preserve" width="512" height="512">
<g>
	<path d="M436.824,491.174c-0.963-2.286-84.865-201.439-87.886-208.609c50.372-27.75,85.188-77.761,85.188-136.567   c0-8.284-6.716-15-15-15H92.876c-8.284,0-15,6.716-15,15c0,58.79,34.804,108.81,85.188,136.567   c-2.427,5.76-86.842,206.13-87.886,208.609c-3.217,7.634,0.365,16.431,8,19.647c7.633,3.216,16.43-0.365,19.646-8l36.579-86.824   h101.598v81c0,8.284,6.716,15,15,15c8.284,0,15-6.716,15-15v-81h101.598l36.579,86.824c3.217,7.635,12.014,11.216,19.646,8   C436.459,507.604,440.041,498.808,436.824,491.174z M108.855,160.998h294.291c-8.498,64.646-71.247,115-147.146,115   S117.353,225.643,108.855,160.998z M152.041,385.998l38.4-91.148c16.052,5.697,33.049,9.277,50.56,10.58v80.567H152.041z    M271.001,385.998V305.43c17.511-1.304,34.508-4.884,50.56-10.58l38.4,91.148H271.001z"/>
	<path d="M246.001,73.972c0,12.64-4.468,15.29-9.511,25.978c-4.706,9.977,2.631,21.404,13.557,21.404   c5.624,0,11.017-3.179,13.576-8.603c3.892-8.256,12.378-17.239,12.378-38.778c0-17.015-5.271-26.151-9.508-33.492   c-3.838-6.651-6.373-11.045-5.227-24.175c0.721-8.253-5.386-15.527-13.639-16.248c-8.243-0.713-15.527,5.386-16.248,13.639   C228.131,50.918,246.001,52.812,246.001,73.972z"/>
	<path d="M168.001,73.972c0,12.64-4.468,15.29-9.511,25.978c-3.534,7.492-0.326,16.432,7.166,19.966   c7.496,3.536,16.433,0.323,19.967-7.166c3.892-8.256,12.378-17.239,12.378-38.778c0-17.015-5.271-26.151-9.508-33.492   c-3.838-6.651-6.373-11.045-5.227-24.175c0.721-8.253-5.386-15.527-13.639-16.248c-8.23-0.713-15.527,5.386-16.248,13.639   C150.131,50.918,168.001,52.812,168.001,73.972z"/>
	<path d="M320.001,73.972c0,12.64-4.468,15.29-9.511,25.978c-3.534,7.492-0.326,16.432,7.166,19.966   c7.496,3.536,16.433,0.323,19.967-7.166c3.892-8.256,12.378-17.239,12.378-38.778c0-17.015-5.271-26.151-9.508-33.492   c-3.838-6.651-6.373-11.045-5.227-24.175c0.721-8.253-5.386-15.527-13.639-16.248c-8.23-0.713-15.527,5.386-16.248,13.639   C302.131,50.918,320.001,52.812,320.001,73.972z"/>
</g>















</svg>
