<svg xmlns="http://www.w3.org/2000/svg" height="512pt" version="1.1" viewBox="0 0 512 512" width="512pt">
<g id="surface1">
<path d="M 302 227 L 302 195 C 302 186.714844 295.285156 180 287 180 C 278.714844 180 272 186.714844 272 195 L 272 227 C 272 235.285156 278.714844 242 287 242 C 295.285156 242 302 235.285156 302 227 Z M 302 227 " style=" stroke:none;fill-rule:nonzero;fill:rgb(0%,0%,0%);fill-opacity:1;" />
<path d="M 362 227 L 362 195 C 362 186.714844 355.285156 180 347 180 C 338.714844 180 332 186.714844 332 195 L 332 227 C 332 235.285156 338.714844 242 347 242 C 355.285156 242 362 235.285156 362 227 Z M 362 227 " style=" stroke:none;fill-rule:nonzero;fill:rgb(0%,0%,0%);fill-opacity:1;" />
<path d="M 497 242 L 452 242 L 452 75 C 452 33.644531 418.355469 0 377 0 C 340.011719 0 309.210938 26.925781 303.113281 62.203125 C 285.078125 68.066406 272 85.03125 272 105 L 272 120 L 257 120 C 248.714844 120 242 126.714844 242 135 C 242 143.285156 248.714844 150 257 150 L 377 150 C 385.285156 150 392 143.285156 392 135 C 392 126.714844 385.285156 120 377 120 L 362 120 L 362 105 C 362 86.042969 350.210938 69.800781 333.585938 63.179688 C 338.789062 44.085938 356.277344 30 377 30 C 401.8125 30 422 50.1875 422 75 L 422 242 L 15 242 C 6.714844 242 0 248.714844 0 257 L 0 287 C 0 307.53125 13.828125 324.886719 32.65625 330.265625 L 52.890625 418.265625 C 58.050781 452.234375 85.671875 478.425781 120 481.660156 L 120 497 C 120 505.285156 126.714844 512 135 512 C 143.285156 512 150 505.285156 150 497 L 150 482 L 362 482 L 362 497 C 362 505.285156 368.714844 512 377 512 C 385.285156 512 392 505.285156 392 497 L 392 481.664062 C 426.34375 478.425781 453.953125 452.222656 459.109375 418.265625 L 479.34375 330.265625 C 498.171875 324.886719 512 307.53125 512 287 L 512 257 C 512 248.714844 505.285156 242 497 242 Z M 302 120 L 302 105 C 302 96.730469 308.730469 90 317 90 C 325.269531 90 332 96.730469 332 105 L 332 120 Z M 362 272 L 362 377 C 362 385.269531 355.269531 392 347 392 L 257 392 C 248.730469 392 242 385.269531 242 377 L 242 272 Z M 30 272 L 212 272 L 212 302 L 45 302 C 36.730469 302 30 295.269531 30 287 Z M 429.742188 412.125 C 429.644531 412.535156 429.570312 412.949219 429.511719 413.363281 C 426.363281 435.390625 407.210938 452 384.960938 452 L 127.039062 452 C 104.789062 452 85.636719 435.390625 82.488281 413.363281 C 82.429688 412.945312 82.351562 412.535156 82.257812 412.125 L 63.839844 332 L 212 332 L 212 377 C 212 401.8125 232.1875 422 257 422 L 347 422 C 371.8125 422 392 401.8125 392 377 L 392 332 L 448.160156 332 Z M 482 287 C 482 295.269531 475.269531 302 467 302 L 392 302 L 392 272 L 482 272 Z M 482 287 " style=" stroke:none;fill-rule:nonzero;fill:rgb(0%,0%,0%);fill-opacity:1;" />
</g>
</svg>