<?xml version="1.0" encoding="utf-8"?>
<!-- Generator: Adobe Illustrator 17.0.0, SVG Export Plug-In . SVG Version: 6.00 Build 0)  -->
<!DOCTYPE svg PUBLIC "-//W3C//DTD SVG 1.1//EN" "http://www.w3.org/Graphics/SVG/1.1/DTD/svg11.dtd">
<svg version="1.1" id="Layer_1" xmlns="http://www.w3.org/2000/svg" xmlns:xlink="http://www.w3.org/1999/xlink" x="0px" y="0px"
	 width="101px" height="93px" viewBox="-0.5 3.5 101 93" enable-background="new -0.5 3.5 101 93" xml:space="preserve">
<g>
	<g>
		<path d="M99.838,67.379c0.154-0.412,0.208-0.867,0.067-1.325l-8.237-26.771v-24.7c0-5.742-4.671-10.417-10.417-10.417h-62.5
			c-5.746,0-10.417,4.675-10.417,10.417v24.7L0.096,66.054c-0.142,0.454-0.087,0.908,0.067,1.325C0.062,67.821,0,68.275,0,68.75
			v16.667v8.333c0,1.15,0.933,2.083,2.083,2.083h8.333c1.15,0,2.083-0.933,2.083-2.083V87.5h75v6.25c0,1.15,0.933,2.083,2.083,2.083
			h8.333c1.15,0,2.083-0.933,2.083-2.083v-8.333V68.75C100,68.275,99.938,67.821,99.838,67.379z M12.5,14.583
			c0-3.446,2.804-6.25,6.25-6.25h62.5c3.446,0,6.25,2.804,6.25,6.25V37.5h-5.662l-1.942-7.767C79.196,26.946,76.7,25,73.829,25
			H60.417c-3.446,0-6.25,2.804-6.25,6.25v6.25h-8.333v-6.246c0-3.446-2.804-6.25-6.25-6.25H26.171c-2.871,0-5.367,1.95-6.067,4.733
			L18.162,37.5H12.5V14.583z M77.558,40.867c-0.4,0.508-1,0.8-1.646,0.8H60.417c-1.146,0-2.083-0.933-2.083-2.083V31.25
			c0-1.15,0.937-2.083,2.083-2.083h13.417c0.958,0,1.787,0.646,2.021,1.575l2.083,8.333C78.096,39.704,77.958,40.354,77.558,40.867z
			 M41.671,31.25v8.312c0,0.008-0.004,0.012-0.004,0.021c0,0.004,0,0.008,0,0.008c-0.004,1.146-0.938,2.075-2.079,2.075H24.092
			c-0.65,0-1.246-0.292-1.646-0.8c-0.4-0.512-0.538-1.167-0.379-1.792l2.083-8.333c0.233-0.925,1.062-1.575,2.025-1.575h13.413
			C40.733,29.167,41.671,30.1,41.671,31.25z M11.954,41.667h6.271c0.221,0.625,0.508,1.225,0.929,1.767
			c1.2,1.525,2.996,2.4,4.933,2.4h15.496c2.713,0,5.004-1.75,5.867-4.167h9.1c0.862,2.421,3.154,4.167,5.867,4.167h15.496
			c1.938,0,3.729-0.875,4.929-2.4c0.421-0.537,0.708-1.142,0.929-1.767h6.275l6.433,20.908C94.238,62.546,94,62.5,93.75,62.5H6.25
			c-0.25,0-0.488,0.046-0.725,0.075L11.954,41.667z M8.333,91.667H4.167V87.5h4.167L8.333,91.667L8.333,91.667z M95.833,91.667
			h-4.167V87.5h4.167V91.667z M95.833,83.333H4.167V68.75c0-1.15,0.938-2.083,2.083-2.083h87.5c1.146,0,2.083,0.933,2.083,2.083
			V83.333z"/>
	</g>
</g>
</svg>
