<svg height="512pt" viewBox="0 -48 512 512" width="512pt" xmlns="http://www.w3.org/2000/svg"><path d="m386.699219 361.40625c-.648438 0-1.308594-.058594-1.949219-.1875-.640625-.132812-1.269531-.320312-1.871094-.570312-.609375-.25-1.1875-.5625-1.730468-.921876-.546876-.371093-1.058594-.789062-1.519532-1.25-.457031-.460937-.878906-.96875-1.238281-1.519531-.359375-.539062-.671875-1.121093-.921875-1.71875-.25-.609375-.4375-1.242187-.570312-1.871093-.128907-.648438-.199219-1.308594-.199219-1.960938 0-2.628906 1.070312-5.210938 2.933593-7.070312.457032-.457032.96875-.878907 1.519532-1.238282.539062-.359375 1.117187-.671875 1.730468-.921875.597657-.25 1.226563-.4375 1.867188-.570312 1.289062-.257813 2.621094-.257813 3.910156 0 .640625.132812 1.261719.320312 1.871094.570312.601562.25 1.179688.5625 1.71875.921875.550781.359375 1.0625.78125 1.519531 1.238282 1.863281 1.859374 2.933594 4.441406 2.933594 7.070312 0 .652344-.0625 1.3125-.191406 1.960938-.128907.628906-.320313 1.261718-.570313 1.871093-.25.597657-.558594 1.179688-.917968 1.71875-.371094.550781-.792969 1.058594-1.25 1.519531-.460938.460938-.972657.878907-1.519532 1.25-.542968.359376-1.121094.671876-1.722656.921876-.609375.25-1.230469.4375-1.871094.570312-.648437.128906-1.300781.1875-1.960937.1875zm0 0"/><path d="m98.488281 267.9375c-.320312 0-.644531-.011719-.972656-.046875-5.496094-.527344-9.523437-5.414063-8.992187-10.910156 2.882812-29.921875 16.769531-57.632813 39.097656-78.03125 22.480468-20.53125 51.601562-31.839844 81.996094-31.839844 5.523437 0 10 4.476563 10 10s-4.476563 10-10 10c-52.640626 0-96.144532 39.460937-101.1875 91.789063-.496094 5.171874-4.851563 9.039062-9.941407 9.039062zm0 0"/><path d="m492.480469 345.753906v-21.207031c0-17.511719-12.277344-32.210937-28.679688-35.945313v-19.84375c0-88.992187-72.402343-161.394531-161.398437-161.394531h-13.976563v-15.648437h50.804688c5.523437 0 10-4.476563 10-10v-18.152344c0-14.742188-11.996094-26.738281-26.738281-26.738281h-132.984376c-14.742187 0-26.738281 11.996093-26.738281 26.738281v18.152344c0 5.523437 4.476563 10 10 10h50.804688v15.648437h-13.980469c-88.992188 0-161.394531 72.398438-161.394531 161.394531v20.355469c-15.394531 4.425781-26.691407 18.636719-26.691407 35.433594v20.21875c-12.683593 5.835937-21.507812 18.660156-21.507812 33.503906v26.863281c0 5.523438 4.476562 10 10 10h492c5.523438 0 10-4.476562 10-10v-26.863281c0-14.054687-7.910156-26.300781-19.519531-32.515625zm-309.710938-282.191406c0-3.714844 3.019531-6.738281 6.738281-6.738281h132.984376c3.71875 0 6.738281 3.023437 6.738281 6.738281v8.152344h-146.460938zm60.800781 28.152344h24.855469v15.648437h-24.855469zm-175.371093 177.042968c0-77.964843 63.429687-141.394531 141.394531-141.394531h92.8125c77.964844 0 141.394531 63.429688 141.394531 141.394531v18.925782h-375.601562zm423.800781 126.375h-472v-16.863281c0-9.296875 7.566406-16.859375 16.871094-16.859375h301.621094c5.523437 0 10-4.476562 10-10 0-5.523437-4.476563-10-10-10h-296.984376v-16.863281c0-9.296875 7.566407-16.863281 16.871094-16.863281h397.230469c9.304687 0 16.871094 7.566406 16.871094 16.863281v16.863281h-34.589844c-5.523437 0-10 4.476563-10 10 0 5.523438 4.476563 10 10 10h37.238281c9.300782 0 16.871094 7.5625 16.871094 16.859375zm0 0"/><path d="m375.539062 28.636719c-2.558593 0-5.117187-.976563-7.070312-2.929688-3.90625-3.90625-3.902344-10.238281.003906-14.144531l8.636719-8.632812c3.90625-3.90625 10.238281-3.90625 14.144531 0 3.902344 3.90625 3.902344 10.238281-.003906 14.140624l-8.640625 8.636719c-1.953125 1.953125-4.511719 2.929688-7.070313 2.929688zm0 0"/><path d="m410.421875 83.335938h-12.21875c-5.519531 0-10-4.480469-10-10 0-5.523438 4.480469-10 10-10h12.21875c5.523437 0 10 4.476562 10 10 0 5.519531-4.476563 10-10 10zm0 0"/><path d="m136.460938 28.636719c-2.558594 0-5.117188-.976563-7.070313-2.929688l-8.640625-8.636719c-3.90625-3.902343-3.90625-10.234374-.003906-14.140624 3.90625-3.90625 10.238281-3.90625 14.144531 0l8.640625 8.632812c3.90625 3.90625 3.90625 10.238281 0 14.144531-1.953125 1.953125-4.511719 2.929688-7.070312 2.929688zm0 0"/><path d="m113.796875 83.335938h-12.21875c-5.523437 0-10-4.480469-10-10 0-5.523438 4.476563-10 10-10h12.21875c5.519531 0 10 4.476562 10 10 0 5.519531-4.480469 10-10 10zm0 0"/></svg>