<?xml version="1.0" encoding="utf-8"?>
<!-- Generator: Adobe Illustrator 17.0.0, SVG Export Plug-In . SVG Version: 6.00 Build 0)  -->
<!DOCTYPE svg PUBLIC "-//W3C//DTD SVG 1.1//EN" "http://www.w3.org/Graphics/SVG/1.1/DTD/svg11.dtd">
<svg version="1.1" id="Слой_1" xmlns="http://www.w3.org/2000/svg" xmlns:xlink="http://www.w3.org/1999/xlink" x="0px" y="0px"
	 width="512px" height="472px" viewBox="0 -0.25 512 472" enable-background="new 0 -0.25 512 472" xml:space="preserve">
<path d="M0,33.848v404.305h512V33.848L0,33.848z M30,63.848h211v344.305H30V63.848z M482,408.152H271V63.848h211V408.152z"/>
<path d="M187.333,139.848v-33.235H63.926v61.704c0,34.023,27.68,61.703,61.704,61.703c33.51,0,60.847-26.855,61.665-60.172H211v-30
	H187.333z M157.333,168.316c0,17.481-14.222,31.703-31.704,31.703c-17.481,0-31.704-14.222-31.704-31.703v-31.704h63.408V168.316z"
	/>
<path d="M75.426,280.848H194.5v30H75.426V280.848z"/>
<path d="M75.426,338.848H194.5v30H75.426V338.848z"/>
<path d="M302,100.848h30.667v30H302V100.848z"/>
<path d="M355,100.848h97.5v30H355V100.848z"/>
<path d="M302,161.58h30.667v30H302V161.58z"/>
<path d="M355,161.58h97.5v30H355V161.58z"/>
<path d="M302,222.313h30.667v30H302V222.313z"/>
<path d="M355,222.313h97.5v30H355V222.313z"/>
<path d="M302,283.046h30.667v30H302V283.046z"/>
<path d="M355,283.046h97.5v30H355V283.046z"/>
<path d="M302,343.778h30.667v30H302V343.778z"/>
<path d="M355,343.778h97.5v30H355V343.778z"/>
</svg>
