<?xml version="1.0" encoding="utf-8"?>
<!-- Generator: Adobe Illustrator 17.0.0, SVG Export Plug-In . SVG Version: 6.00 Build 0)  -->
<!DOCTYPE svg PUBLIC "-//W3C//DTD SVG 1.1//EN" "http://www.w3.org/Graphics/SVG/1.1/DTD/svg11.dtd">
<svg version="1.1" id="Capa_1" xmlns="http://www.w3.org/2000/svg" xmlns:xlink="http://www.w3.org/1999/xlink" x="0px" y="0px"
	 width="615px" height="615px" viewBox="-1.5 -1.5 615 615" enable-background="new -1.5 -1.5 615 615" xml:space="preserve">
<path d="M325.125,497.25h-38.25v38.25h38.25V497.25z M286.875,95.625v210.834c0,10.557,8.568,19.125,19.125,19.125h172.125
	c10.557,0,19.125-8.568,19.125-19.125s-8.568-19.125-19.125-19.125h-153V95.625c0-10.557-8.568-19.125-19.125-19.125
	S286.875,85.068,286.875,95.625z M456.762,410.136l-26.469,26.526l26.469,26.526l26.469-26.526L456.762,410.136z M453.684,186.22
	l27.043-27.043l-27.043-27.042l-27.062,27.042L453.684,186.22z M163.327,131.695l-26.469,26.526l26.469,26.526l26.47-26.526
	L163.327,131.695z M168.357,408.587l-27.043,27.042l27.043,27.043l27.043-27.043L168.357,408.587z M76.5,286.875v38.25h38.25v-38.25
	H76.5z M0,306c0,168.988,136.992,306,306,306s306-136.992,306-306C612,137.012,475.008,0,306,0S0,137.012,0,306z M38.25,306
	C38.25,158.125,158.125,38.25,306,38.25S573.75,158.125,573.75,306S453.875,573.75,306,573.75S38.25,453.875,38.25,306z"/>
</svg>
