<?xml version="1.0" encoding="iso-8859-1"?>
<!-- Generator: Adobe Illustrator 19.0.0, SVG Export Plug-In . SVG Version: 6.00 Build 0)  -->
<svg version="1.1" id="Capa_1" xmlns="http://www.w3.org/2000/svg" xmlns:xlink="http://www.w3.org/1999/xlink" x="0px" y="0px"
	 viewBox="0 0 512 512" style="enable-background:new 0 0 512 512;" xml:space="preserve">
<g>
	<g>
		<g>
			<path d="M503.147,213.483l-62.933-10.944c-3.925-13.589-9.344-26.667-16.171-39.04l36.757-52.245
				c2.987-4.245,2.496-10.005-1.173-13.675l-45.269-45.248c-3.648-3.648-9.429-4.181-13.675-1.173l-52.245,36.757
				c-12.373-6.827-25.429-12.245-39.019-16.171L298.475,8.811C297.621,3.733,293.184,0,288,0h-64c-5.184,0-9.621,3.733-10.517,8.853
				l-10.944,62.933c-13.589,3.925-26.667,9.344-39.019,16.171l-52.224-36.779c-4.224-3.008-10.005-2.475-13.675,1.173L52.352,97.6
				c-3.669,3.669-4.16,9.451-1.173,13.675l36.757,52.245c-6.827,12.373-12.245,25.451-16.171,39.04L8.832,213.504
				C3.733,214.379,0,218.816,0,224v64c0,5.184,3.733,9.621,8.853,10.517l62.933,10.944c3.925,13.589,9.344,26.667,16.171,39.019
				L51.2,400.725c-2.987,4.245-2.496,10.005,1.173,13.675l45.269,45.269c3.669,3.691,9.451,4.203,13.675,1.173l52.245-36.757
				c12.373,6.827,25.429,12.245,39.019,16.171l10.944,62.933C214.379,508.267,218.816,512,224,512h64
				c5.184,0,9.621-3.733,10.517-8.853l10.944-62.933c13.589-3.925,26.667-9.344,39.019-16.171l52.245,36.757
				c4.245,3.029,10.027,2.517,13.675-1.173l45.269-45.269c3.669-3.669,4.16-9.429,1.173-13.675l-36.757-52.245
				c6.827-12.373,12.245-25.429,16.171-39.019l62.933-10.944C508.267,297.621,512,293.184,512,288v-64
				C512,218.816,508.267,214.379,503.147,213.483z M490.667,279.04l-60.779,10.56c-4.16,0.725-7.509,3.819-8.512,7.915
				c-4.075,16.235-10.496,31.723-19.093,46.059c-2.176,3.627-2.005,8.171,0.427,11.627l35.52,50.453l-32.576,32.576l-50.453-35.52
				c-3.456-2.432-8-2.624-11.627-0.427c-14.315,8.597-29.824,15.019-46.059,19.093c-4.096,1.024-7.189,4.373-7.915,8.512
				l-10.56,60.779h-46.08l-10.56-60.779c-0.725-4.16-3.819-7.509-7.915-8.512c-16.235-4.075-31.723-10.496-46.059-19.093
				c-3.627-2.197-8.171-1.984-11.627,0.427l-50.453,35.52l-32.576-32.576l35.52-50.453c2.432-3.456,2.603-8,0.427-11.627
				c-8.597-14.315-15.019-29.824-19.093-46.059c-1.024-4.096-4.373-7.189-8.512-7.915l-60.779-10.56v-46.08l60.779-10.56
				c4.16-0.725,7.509-3.819,8.512-7.915c4.075-16.235,10.496-31.723,19.093-46.037c2.176-3.627,2.005-8.171-0.427-11.627
				l-35.52-50.475l32.576-32.555l50.453,35.52c3.435,2.411,8,2.603,11.627,0.427c14.315-8.597,29.824-15.019,46.059-19.093
				c4.096-1.024,7.189-4.373,7.915-8.512l10.56-60.8h46.059l10.56,60.779c0.725,4.16,3.819,7.509,7.915,8.512
				c16.235,4.075,31.723,10.496,46.059,19.093c3.627,2.197,8.192,1.984,11.627-0.427l50.453-35.52l32.576,32.555l-35.52,50.475
				c-2.432,3.456-2.603,8-0.427,11.627c8.597,14.315,15.019,29.824,19.093,46.059c1.024,4.096,4.373,7.189,8.512,7.915l60.8,10.56
				V279.04z"/>
			<path d="M256,128c-70.592,0-128,57.408-128,128s57.408,128,128,128s128-57.408,128-128S326.592,128,256,128z M256,362.667
				c-58.816,0-106.667-47.851-106.667-106.667S197.184,149.333,256,149.333S362.667,197.184,362.667,256
				S314.816,362.667,256,362.667z"/>
			<path d="M256,192c-35.285,0-64,28.715-64,64s28.715,64,64,64s64-28.715,64-64S291.285,192,256,192z M256,298.667
				c-23.531,0-42.667-19.136-42.667-42.667s19.136-42.667,42.667-42.667s42.667,19.136,42.667,42.667S279.531,298.667,256,298.667z"
				/>
		</g>
	</g>
</g>
<g>
</g>
<g>
</g>
<g>
</g>
<g>
</g>
<g>
</g>
<g>
</g>
<g>
</g>
<g>
</g>
<g>
</g>
<g>
</g>
<g>
</g>
<g>
</g>
<g>
</g>
<g>
</g>
<g>
</g>
</svg>
