<svg enable-background="new 0 0 64 64" height="512" viewBox="0 0 64 64" width="512" xmlns="http://www.w3.org/2000/svg"><path d="m41 37h10v-6h-10zm2-4h6v2h-6z"/><path d="m49 15.36-14-6.462-14 6.462v8.792l-4.242 3.117c-.683.31-1.218.856-1.514 1.548-.316.737-.326 1.553-.028 2.296.459 1.147 1.552 1.888 2.784 1.888.341 0 .676-.067 1-.181v8.18h36v-18h-6zm-15-.36h-7.447l7.447-3.437zm2-3.437 7.447 3.437h-7.447zm-13 5.437h24v6h-15.564l-1.341-.986c-1.791-1.315-4.392-1.318-6.186 0l-.909.668zm20 10v-2h2v2zm-6.122 0-2.721-2h2.843v2zm2.122-2h2v2h-2zm-21.928 5.37c-.101-.25-.097-.515.011-.765.104-.245.299-.435.547-.534l7.464-5.445c.556-.41 1.216-.626 1.907-.626.683 0 1.36.222 1.909.625l7.242 5.323.221.123c.251.1.44.285.547.534.107.25.11.515.01.766-.187.465-.715.725-1.192.594l-7.023-5.383c-.976-.749-2.445-.75-3.425 0l-7.024 5.384c-.489.131-1.007-.129-1.194-.596zm3.928.983 5.506-4.184c.283-.218.707-.217.99 0l5.504 4.218v7.613h-2v-6h-8v6h-2zm8 7.647h-4v-4h4zm6 0v-6.181c.322.115.657.181 1.001.181 1.234 0 2.328-.741 2.786-1.887.273-.683.274-1.424.03-2.113h14.183v10zm18-12h-6v-2h6z"/><path d="m43 19h2v2h-2z"/><path d="m31 19h2v2h-2z"/><path d="m35 19h2v2h-2z"/><path d="m39 19h2v2h-2z"/><path d="m13 49c.552 0 1 .448 1 1h2c0-1.654-1.346-3-3-3v-2h-2v2h-3v3c0 1.654 1.346 3 3 3h2c.552 0 1 .448 1 1v1h-3c-.552 0-1-.448-1-1h-2c0 1.654 1.346 3 3 3v2h2v-2h3v-3c0-1.654-1.346-3-3-3h-2c-.552 0-1-.448-1-1v-1z"/><path d="m58 1h-46c-2.757 0-5 2.243-5 5v36.214c-3.556 1.825-6 5.522-6 9.786 0 6.065 4.935 11 11 11s11-4.935 11-11c0-1.041-.155-2.045-.426-3h35.426c2.757 0 5-2.243 5-5v-38c0-2.757-2.243-5-5-5zm-46 60c-4.963 0-9-4.037-9-9s4.037-9 9-9 9 4.037 9 9-4.037 9-9 9zm6.305-18c-1.53-1.075-3.342-1.771-5.305-1.949v-34.051h44v36zm42.695 1c0 1.654-1.346 3-3 3h-36.214c-.366-.714-.8-1.387-1.307-2h36.521c1.103 0 2-.897 2-2v-36c0-1.103-.897-2-2-2h-44c-1.103 0-2 .897-2 2v34.051c-.688.062-1.355.192-2 .376v-35.427c0-1.654 1.346-3 3-3h46c1.654 0 3 1.346 3 3z"/><path d="m15 9h2v2h-2z"/><path d="m15 13h2v2h-2z"/><path d="m15 21h2v2h-2z"/><path d="m15 17h2v2h-2z"/><path d="m25 51h10v2h-10z"/><path d="m25 55h10v2h-10z"/><path d="m25 59h2v2h-2z"/><path d="m33 59h2v2h-2z"/><path d="m29 59h2v2h-2z"/></svg>