<?xml version="1.0" encoding="iso-8859-1"?>
<!-- Generator: Adobe Illustrator 19.0.0, SVG Export Plug-In . SVG Version: 6.00 Build 0)  -->
<svg version="1.1" id="Capa_1" xmlns="http://www.w3.org/2000/svg" xmlns:xlink="http://www.w3.org/1999/xlink" x="0px" y="0px"
	 viewBox="0 0 512 512" style="enable-background:new 0 0 512 512;" xml:space="preserve">
<g>
	<g>
		<path d="M0,0v497.333h31V512h30v-14.667h390V512h30v-14.667h31V0H0z M482,467.333H30V152h452V467.333z M482,122H30V30h452V122z"/>
	</g>
</g>
<g>
	<g>
		<path d="M61,182.667V422h390V182.667H61z M421,392H91v-30.667h330V392z M421,331.334H91V212.667h330V331.334z"/>
	</g>
</g>
<g>
	<g>
		<rect x="166" y="243.33" width="180" height="30"/>
	</g>
</g>
<g>
	<g>
		<rect x="91" y="62.833" width="30" height="30"/>
	</g>
</g>
<g>
	<g>
		<rect x="151" y="62.833" width="30" height="30"/>
	</g>
</g>
<g>
	<g>
		<rect x="331" y="62.833" width="30" height="30"/>
	</g>
</g>
<g>
	<g>
		<rect x="391" y="62.833" width="30" height="30"/>
	</g>
</g>
<g>
	<g>
		<rect x="211" y="62.833" width="90" height="30"/>
	</g>
</g>
<g>
</g>
<g>
</g>
<g>
</g>
<g>
</g>
<g>
</g>
<g>
</g>
<g>
</g>
<g>
</g>
<g>
</g>
<g>
</g>
<g>
</g>
<g>
</g>
<g>
</g>
<g>
</g>
<g>
</g>
</svg>
