<svg enable-background="new -6.5 -0.5 450 338" fill="#e6e6e6" height="338" viewBox="-6.5 -.5 450 338" width="450" xmlns="http://www.w3.org/2000/svg"><path d="m204.554 320.488c-10.769-43.834-13.44-80.718-12.489-112.92-39.986-28.529-85.514-37.485-134.207-35.24-32.193 2.085-54.671 8.16-60.028 14.848-5.757 7.19 1.473 26.55 20.362 63.228 14.319 26.638 29.562 50.221 46.517 70.085 4.501 5.494 9.128 10.895 13.505 16.482l131.706.48c-1.955-5.757-3.9-11.048-5.366-16.963zm232.633-109.452c14.082-68.727.631-135.302-48.198-210.39-157.305 73.989-190.073 186.761-157.606 319.842 1.279 5.684 2.862 11.329 4.141 17.012 40.558-.048 80.252-.095 120.81-.143 5.041-5.622 10.948-11.246 15.991-16.869 28.835-32.743 54.168-68.407 64.862-109.452z"/></svg>