<svg enable-background="new 0 0 512 512" viewBox="0 0 512 512" xmlns="http://www.w3.org/2000/svg"><path d="m366 396c-5.52 0-10 4.48-10 10s4.48 10 10 10 10-4.48 10-10-4.48-10-10-10z"/><path d="m390.622 363.663-47.53-15.84-17.063-34.127c15.372-15.646 26.045-36.348 29.644-57.941l2.128-12.755h18.199c16.542 0 30-13.458 30-30v-63c0-82.71-67.29-150-150-150-82.922 0-150 67.097-150 150v63c0 13.036 8.361 24.152 20 28.28v11.72c0 16.542 13.458 30 30 30h8.782c4.335 9.417 9.946 18.139 16.774 25.974 1.416 1.628 2.893 3.206 4.406 4.741l-17.054 34.108-47.531 15.841c-55.265 18.428-95.377 76.607-95.377 138.336 0 5.523 4.477 10 10 10h440c5.522 0 10-4.477 10-10 0-61.729-40.111-119.908-95.378-138.337zm-4.622-150.663c0 5.514-4.486 10-10 10h-15.262c2.542-19.69 4.236-40.643 4.917-61.28.02-.582.036-1.148.054-1.72h20.291zm-250 10c-5.514 0-10-4.486-10-10v-53h20.298c.033 1.043.068 2.091.107 3.146.001.036.003.071.004.107v.009c.7 20.072 2.372 40.481 4.856 59.737h-15.265zm20 40c-5.514 0-10-4.486-10-10v-10h8.198l2.128 12.759c.406 2.425.905 4.841 1.482 7.241zm-9.983-123h-19.637c5.065-67.021 60.997-120 129.62-120 68.318 0 124.496 52.972 129.619 120h-19.635c-.72-55.227-45.693-100-101.033-100h-17.9c-55.339 0-100.315 44.773-101.034 100zm101.033-80h17.9c44.809 0 81.076 36.651 81.05 81.41 0 3.147-.025 5.887-.078 8.38 0 .032-.001.065-.001.098l-12.508-1.787c-33.98-4.852-66.064-20.894-90.342-45.172-1.876-1.875-4.419-2.929-7.071-2.929-26.856 0-52.564 12.236-69.558 32.908 4.188-40.719 38.611-72.908 80.608-72.908zm-68.51 203c-5.006-16.653-10.734-65.653-12-97.053l13.459-17.946c12.361-16.476 31.592-26.713 52.049-27.888 26.917 25.616 61.739 42.532 98.537 47.786l14.722 2.104c-.984 20.885-2.995 41.843-5.876 61.118-.001.006-.002.013-.003.02-.916 6.197-1.638 10.185-3.482 21.324-5.296 31.765-28.998 60.49-60.287 68.313-12.877 3.215-26.443 3.214-39.313 0-19.537-4.884-37.451-18.402-49.012-37.778h20.386c4.128 11.639 15.243 20 28.28 20h20c16.575 0 30-13.424 30-30 0-16.542-13.458-30-30-30h-20c-13.327 0-24.278 8.608-28.297 20zm56.619 78.016c6.859 1.445 13.852 2.184 20.841 2.184 5.471 0 10.943-.458 16.353-1.346l-17.67 18.687zm5.776 34.063-31.718 33.542c-8.732-16.714-16.235-34.109-22.389-51.917l11.911-23.822zm70.631-45.585 13.604 27.209c-6.164 17.838-13.669 35.239-22.392 51.933l-33.948-33.948zm-85.566-56.494c0-5.521 4.478-10 10-10h20c5.514 0 10 4.486 10 10 0 5.522-4.479 10-10 10h-20c-5.514 0-10-4.486-10-10zm-179.6 219c3.963-49.539 36.932-94.567 81.302-109.363l42.094-14.028c7.712 21.325 17.266 42.052 28.463 61.74.019.034.037.068.056.101 0 .001.001.001.001.002 8.181 14.389 17.389 28.45 27.372 41.799l12.302 19.749zm209.6-8.914-13.562-21.773c-.152-.244-.314-.481-.486-.711-8.098-10.802-15.652-22.099-22.532-33.662l35.663-37.714 37.578 37.578c-6.926 11.647-14.506 22.991-22.611 33.796-.49.653.205-.376-14.05 22.486zm18.01 8.914 12.301-19.748c10.027-13.4 19.301-27.574 27.564-42.132.05-.088.097-.178.147-.266.006-.011.012-.021.018-.032 11.055-19.5 20.509-40.047 28.164-61.213l42.093 14.028c44.371 14.796 77.34 59.824 81.303 109.363z"/><path d="m435.546 451.531c-6.683-13.377-16.472-25.261-28.309-34.367-4.378-3.369-10.656-2.55-14.023 1.828-3.368 4.378-2.549 10.656 1.828 14.024 9.454 7.273 17.272 16.766 22.611 27.453 2.473 4.949 8.483 6.941 13.415 4.477 4.94-2.468 6.945-8.474 4.478-13.415z"/></svg>