<?xml version="1.0" encoding="iso-8859-1"?>
<!-- Generator: Adobe Illustrator 19.0.0, SVG Export Plug-In . SVG Version: 6.00 Build 0)  -->
<svg version="1.1" id="Capa_1" xmlns="http://www.w3.org/2000/svg" xmlns:xlink="http://www.w3.org/1999/xlink" x="0px" y="0px"
	 viewBox="0 0 512 512" style="enable-background:new 0 0 512 512;" xml:space="preserve">
<g>
	<g>
		<path d="M504,448h-16V8c0-4.416-3.584-8-8-8H32c-4.416,0-8,3.584-8,8v440H8c-4.416,0-8,3.576-8,8v48c0,4.424,3.584,8,8,8h496
			c4.416,0,8-3.576,8-8v-48C512,451.576,508.416,448,504,448z M40,16h432v432H40V16z M496,496H16v-32h16h448h16V496z"/>
	</g>
</g>
<g>
	<g>
		<path d="M448,32H64c-4.416,0-8,3.584-8,8v384c0,4.424,3.584,8,8,8h384c4.416,0,8-3.576,8-8V40C456,35.584,452.416,32,448,32z
			 M248,416H72V240h176V416z M248,224H72V48h176V224z M440,416H264V240h176V416z M440,224H264V48h176V224z"/>
	</g>
</g>
<g>
	<g>
		<path d="M96,64c-4.416,0-8,3.584-8,8v32h16V80h24V64H96z"/>
	</g>
</g>
<g>
	<g>
		<rect x="88" y="120" width="16" height="16"/>
	</g>
</g>
<g>
</g>
<g>
</g>
<g>
</g>
<g>
</g>
<g>
</g>
<g>
</g>
<g>
</g>
<g>
</g>
<g>
</g>
<g>
</g>
<g>
</g>
<g>
</g>
<g>
</g>
<g>
</g>
<g>
</g>
</svg>
