<?xml version="1.0" standalone="no"?>
<!DOCTYPE svg PUBLIC "-//W3C//DTD SVG 20010904//EN"
 "http://www.w3.org/TR/2001/REC-SVG-20010904/DTD/svg10.dtd">
<svg version="1.0" xmlns="http://www.w3.org/2000/svg"
 width="700.000000pt" height="700.000000pt" viewBox="0 0 700.000000 700.000000"
 preserveAspectRatio="xMidYMid meet">
<metadata>
Created by potrace 1.11, written by Peter Selinger 2001-2013
</metadata>
<g transform="translate(0.000000,700.000000) scale(0.100000,-0.100000)"
fill="#000000" stroke="none">
<path d="M5530 5851 c-835 -422 -1405 -952 -1712 -1591 -70 -146 -160 -386
-183 -486 -79 -353 -99 -522 -99 -819 1 -124 12 -356 19 -395 2 -11 6 -45 10
-77 3 -32 8 -69 10 -83 2 -14 9 -54 14 -90 16 -104 21 -129 42 -235 31 -154
92 -393 149 -579 85 -279 237 -696 255 -696 21 0 367 181 491 257 324 199 591
418 854 700 303 325 607 800 835 1308 15 33 35 78 45 100 39 85 58 171 85 385
34 280 18 648 -42 940 -8 41 -16 82 -18 90 -28 137 -114 401 -192 585 -104
248 -379 747 -414 752 -8 1 -75 -28 -149 -66z"/>
<path d="M1457 3744 c-1 -1 -47 -4 -102 -8 -55 -3 -111 -8 -125 -10 -14 -3
-47 -7 -74 -11 -182 -23 -379 -78 -452 -127 -41 -28 -51 -40 -60 -77 -25 -103
35 -280 221 -652 183 -365 398 -700 629 -979 88 -106 257 -279 337 -345 34
-27 67 -55 73 -60 40 -37 192 -145 203 -145 3 0 14 -7 24 -16 44 -40 287 -159
424 -207 124 -44 205 -68 205 -60 0 3 6 1 13 -5 8 -7 112 -29 112 -23 0 0 18
-4 40 -9 42 -10 82 -16 200 -30 61 -7 445 -13 445 -7 0 1 -12 34 -26 72 -32
87 -132 373 -134 383 0 4 -12 41 -25 83 -19 60 -60 210 -91 329 -9 35 -55 237
-59 260 -26 145 -55 318 -60 357 -3 26 -7 68 -10 93 -3 25 -7 59 -10 75 -2 17
-7 71 -10 120 -4 50 -8 110 -10 135 -2 25 -4 129 -4 231 l-1 186 -82 54 c-263
170 -596 299 -903 350 -101 17 -108 18 -165 24 -30 3 -80 8 -110 11 -49 6
-407 13 -413 8z"/>
</g>
</svg>
